<?xml version="1.0" encoding="UTF-8"?>
<svg id="_レイヤー_2" data-name="レイヤー 2" xmlns="http://www.w3.org/2000/svg" viewBox="0 0 119.82 36.55">
  <defs>
    <style>
      .cls-1 {
        fill: #e6dfcb;
      }
    </style>
  </defs>
  <g id="_固定" data-name="固定">
    <g>
      <path class="cls-1" d="M22.27,35.69c-1.4,0-3.22-.03-5.47-.1-2.93-.07-4.75-.11-5.47-.12l-7.3-.1c-.73.02-1.78-.02-3.15-.1-.47-.08-.71-.33-.71-.76,0-1.77.03-4.43.09-7.97.06-3.54.09-6.2.09-7.97,0-1.89-.06-4.72-.17-8.48-.11-3.77-.17-6.6-.17-8.48,0-.36.24-.54.73-.54s1.22.02,2.19.07c.97.05,1.69.07,2.16.07.54,0,1.33-.03,2.39-.09,1.06-.06,1.86-.09,2.39-.09.24,0,.36.15.34.46l-.02.32c-.2,3.06-.42,7.66-.66,13.79l-.02,6.45c0,2.08,0,3.61.02,4.57.02.2.03.39.05.59.02.2.14.32.37.37h.63c1.46,0,3.66-.08,6.58-.23,2.92-.15,5.11-.23,6.58-.23.44,0,.66.19.66.56,0,2.78-.2,5.18-.61,7.2-.08.42-.25.68-.51.76-.08.03-.42.05-1,.05Z"/>
      <path class="cls-1" d="M37.08,17.24c0,1.92.05,4.81.15,8.67s.15,6.75.15,8.67c0,.33-.07.53-.22.61-.03.02-.24.05-.64.1-1.06.13-2.47.2-4.25.2-2.38,0-3.89-.07-4.54-.2-.47-.1-.71-.35-.71-.76,0,.26.07-1.17.22-4.3.29-6.59.44-10.92.44-12.99,0-1.74-.06-4.35-.17-7.84-.11-3.48-.17-6.1-.17-7.84,0-.36.19-.54.56-.54.5,0,1.27.02,2.28.07,1.02.05,1.78.07,2.28.07s1.25-.02,2.23-.07c.98-.05,1.73-.07,2.23-.07.47,0,.71.18.71.54,0,1.74-.09,4.35-.28,7.84-.19,3.48-.28,6.1-.28,7.84Z"/>
      <path class="cls-1" d="M72.12,33.91c0,.7-.3,1.16-.9,1.37-.49.16-1.77.24-3.86.24s-3.47-.08-4.39-.24c-.44-.08-.73-.17-.87-.26-.14-.09-.31-.32-.52-.7-1.19-2.18-2.37-4.36-3.54-6.54-1.94-3.52-3.09-5.45-3.47-5.81-1.76.63-2.64,1.09-2.64,1.37,0,1.22.05,3.06.15,5.53s.15,4.32.15,5.55c0,.5-.22.79-.66.85-.85.13-2.38.2-4.59.2s-3.52-.07-4.2-.2c-.47-.1-.71-.35-.71-.76,0-1.76.09-4.41.26-7.96.17-3.55.26-6.21.26-7.98,0-1.89-.08-4.72-.24-8.51-.16-3.78-.24-6.62-.24-8.51,0-.36.17-.54.51-.54.5,0,1.27.02,2.28.07,1.02.05,1.78.07,2.28.07s1.29-.02,2.32-.07,1.79-.07,2.29-.07c.28,0,.42.15.42.44,0,1.2-.06,3.02-.18,5.46s-.18,4.25-.18,5.46c0,1.4.38,2.1,1.15,2.1,1.94,0,3.44-.53,4.52-1.59.8-.78,1.6-2.21,2.42-4.27.52-1.58,1.38-3.91,2.56-6.98.18-.41.54-.61,1.1-.61.42,0,1.06.02,1.92.07s1.49.07,1.92.07,1.09-.02,1.97-.05c.87-.03,1.52-.05,1.94-.05.39,0,.59.19.59.56,0,.54-.34,1.85-1.03,3.93-2.02,6.15-4.34,9.99-6.96,11.52-.54.31-.81.56-.81.76,0-.02,1.5,2.43,4.5,7.32,3,4.9,4.5,7.81,4.5,8.74Z"/>
      <path class="cls-1" d="M99.93,27.69c0,.7-.14,1.99-.42,3.86-.29,2.03-.55,3.25-.78,3.64-.2.31-.46.46-.81.46-.15,0-.39-.02-.73-.07-1.19-.16-4.66-.24-10.4-.24-1.25,0-3.12,0-5.59-.02-2.47-.02-4.33-.02-5.57-.02-.54,0-.81-.24-.81-.71,0-1.82.1-4.56.31-8.22.2-3.65.31-6.39.31-8.22s-.1-5.31-.29-10.38c-.05-1.3-.14-3.25-.27-5.83l-.02-.34c-.03-.37.17-.56.61-.56,1.2,0,3.02.03,5.43.1,2.42.07,4.23.1,5.43.1s2.98-.03,5.37-.1c2.39-.06,4.18-.1,5.37-.1.85,0,1.33.32,1.46.95.08.37.21,1.51.38,3.41s.26,3.05.26,3.45c0,.34-.16.51-.49.51-.1,0-.27,0-.51-.02-4.33-.36-8.22-.54-11.67-.54-.86,0-1.39.2-1.59.61-.08.2-.12.82-.12,1.88s.16,1.84.49,2.2c.28.31.81.46,1.59.46.16,0,.48-.01.95-.04.47-.02.86-.04,1.17-.04,2.05,0,4.13-.06,6.23-.17.18-.02.63-.06,1.34-.12.55-.06.99-.1,1.32-.1.39,0,.59.19.59.56,0-.34-.15.9-.44,3.74-.13,1.3-.2,2.6-.2,3.91,0,.33-.24.49-.71.49l-2.2-.24c-.93-.1-3.04-.15-6.35-.15h-2.59c-.67,0-1.06.16-1.17.49-.02.08-.02.59-.02,1.51,0,1.24.08,2.03.24,2.39.28.62,1.32.98,3.12,1.1-.03,0,1.16,0,3.56,0,.86,0,2.14-.08,3.85-.23,1.7-.15,2.97-.23,3.82-.23.36,0,.54.29.54.88Z"/>
      <path class="cls-1" d="M119.82,24.05c0,3.3-1.39,6.14-4.17,8.5-2.44,2.08-5.41,3.41-8.91,3.98-.13.02-.24.02-.32.02-.37,0-1.2-1.14-2.49-3.43-1.29-2.29-1.93-3.68-1.93-4.19,0-.18.12-.29.37-.34,2.36-.54,3.92-.99,4.69-1.37,1.69-.85,2.54-2.1,2.54-3.76,0-1.06-.55-2.24-1.66-3.54-1.92-2.21-2.96-3.44-3.12-3.69-1.12-1.69-1.68-3.56-1.68-5.62,0-2.98,1.38-5.45,4.13-7.42,2.25-1.63,5-2.69,8.28-3.17.18-.02.32-.02.42-.02.24,0,.44.2.59.59.42,1.19,1.41,3.34,2.95,6.45.05.1.07.18.07.24,0,.28-.15.42-.44.42-.13,0-.35-.02-.66-.07-.31-.05-.55-.07-.71-.07-1.17,0-2.2.27-3.08.81-1.06.62-1.59,1.48-1.59,2.59,0,.99.59,2.21,1.76,3.66,2.07,2.6,3.15,3.97,3.25,4.1,1.16,1.79,1.73,3.57,1.73,5.35Z"/>
    </g>
  </g>
</svg>