<?xml version="1.0" encoding="UTF-8"?>
<svg id="_レイヤー_2" data-name="レイヤー 2" xmlns="http://www.w3.org/2000/svg" viewBox="0 0 445.65 72.12">
  <defs>
    <style>
      .cls-1 {
        fill: #e6dfcb;
      }
    </style>
  </defs>
  <g id="_固定" data-name="固定">
    <g>
      <path class="cls-1" d="M58.84,59.28c0,.52-.34,1.2-1.03,2.05-5.99,7.13-13.95,10.69-23.88,10.69s-18.39-3.47-24.71-10.4C3.08,54.92,0,46.45,0,36.23S3.01,17.94,9.03,11.04C15.32,3.81,23.31.2,33.01.2c10.55,0,18.82,3.24,24.8,9.72.65.72.98,1.35.98,1.9,0,.62-1.13,2.91-3.39,6.88-2.26,3.97-3.69,6.2-4.27,6.69-.26.26-.59.39-.98.39-.16,0-.98-.65-2.44-1.95-1.76-1.56-3.48-2.78-5.18-3.66-2.57-1.3-5.24-1.95-8.01-1.95-4.79,0-8.61,1.79-11.47,5.37-2.64,3.32-3.96,7.42-3.96,12.3s1.32,9.1,3.96,12.45c2.86,3.65,6.69,5.47,11.47,5.47,2.83,0,5.52-.62,8.06-1.86,1.66-.81,3.35-1.95,5.08-3.42,1.43-1.24,2.23-1.86,2.39-1.86.33,0,.65.18.98.54.52.59,1.94,2.62,4.25,6.1,2.38,3.61,3.56,5.6,3.56,5.96Z"/>
      <path class="cls-1" d="M131.93,36.13c0,10.16-3.24,18.67-9.72,25.54-6.61,6.97-14.97,10.45-25.1,10.45s-18.41-3.52-25.05-10.55c-6.51-6.87-9.77-15.35-9.77-25.44s3.25-18.64,9.77-25.54c6.64-7.06,14.99-10.6,25.05-10.6s18.33,3.53,25,10.6c6.54,6.97,9.81,15.48,9.81,25.54ZM113.43,36.04c0-4.88-1.48-9.03-4.44-12.45-3.09-3.58-7.05-5.37-11.87-5.37s-8.48,1.86-11.67,5.57c-3.09,3.58-4.64,7.7-4.64,12.35,0,4.98,1.45,9.13,4.35,12.45,3.06,3.48,7.05,5.22,11.96,5.22,4.59,0,8.5-1.84,11.72-5.52,3.06-3.52,4.59-7.6,4.59-12.26Z"/>
      <path class="cls-1" d="M204.54,3.32c0,3.71-.16,9.29-.46,16.72-.31,7.44-.46,13.03-.46,16.77v32.18c0,.88-.47,1.32-1.42,1.32-.78,0-1.96.03-3.54.1-1.58.06-2.76.1-3.54.1-.85,0-2.12-.07-3.81-.2-1.69-.13-2.96-.2-3.81-.2-.59,0-1.29-.54-2.1-1.61-2.34-3.16-7.62-10.16-15.82-21-2.25-3.03-5.66-7.49-10.25-13.38-.13-.2-.37-.39-.73-.59-.26.23-.39.59-.39,1.07,0,3.78.11,9.44.32,16.99.21,7.55.32,13.22.32,16.99,0,1.14-.44,1.71-1.32,1.71h-16.89c-.94,0-1.42-.5-1.42-1.51,0-3.52.17-8.82.51-15.92.34-7.1.51-12.42.51-15.97,0-3.74-.16-9.34-.46-16.8-.31-7.45-.46-13.04-.46-16.75,0-.72.63-1.07,1.9-1.07,1.89,0,4.22-.13,6.98-.39.65-.06,1.94-.28,3.86-.63,1.63-.29,2.91-.44,3.86-.44.39,0,.99.55,1.81,1.66l18.21,24.95c1.63,2.25,4.08,5.53,7.37,9.86.81,1.01,1.51,1.51,2.1,1.51.42,0,.63-1.27.63-3.81,0-3.42-.19-8.56-.56-15.43-.38-6.87-.56-12.03-.56-15.48,0-1.2.34-1.81,1.03-1.81,1.95,0,4.9-.08,8.84-.24,3.94-.16,6.88-.24,8.84-.24.62,0,.93.5.93,1.51Z"/>
      <path class="cls-1" d="M261.18,16.75c0,.65-.36.98-1.07.98-1.24,0-6.14-.24-14.7-.73-.2,8.24-.29,13.98-.29,17.24,0,3.84.15,9.62.46,17.33.31,7.71.46,13.49.46,17.33,0,.62-.15,1.01-.44,1.17-.1.07-.55.15-1.37.24-1.95.26-4.82.39-8.59.39-4.2,0-7.15-.13-8.84-.39-.91-.16-1.37-.67-1.37-1.51,0-3.84.16-9.6.49-17.29.33-7.68.49-13.44.49-17.29,0-2.54-.13-8.2-.39-16.99-6.51.65-11.7.98-15.58.98-.52,0-.78-.16-.78-.49,0-.42.23-1.68.68-3.76.52-2.28.81-3.66.88-4.15.1-1.53.21-3.06.34-4.59.23-2.44.62-3.66,1.17-3.66.07,0,.29.02.68.05,5.27.68,13.07,1.03,23.39,1.03,2.93,0,8.33-.31,16.21-.93,4.23-.33,6.36-.49,6.4-.49.65,0,1.03.04,1.12.12.1.08.16.4.2.95,0,.88-.03,2.1-.1,3.66-.07,1.73-.1,2.95-.1,3.66,0,.81.11,2.01.32,3.59.21,1.58.32,2.76.32,3.54Z"/>
      <path class="cls-1" d="M330.81,69.09c0,.59-.41.99-1.22,1.22-.98.26-4,.39-9.08.39-4.66,0-7.65-.13-8.98-.39-1.11-.23-1.81-.96-2.1-2.2-1.11-4.69-1.97-7.19-2.59-7.52-.52-.23-4.88-.34-13.09-.34-5.53,0-8.48.15-8.84.44-.55.52-1.17,2.26-1.86,5.22-.62,2.7-1.37,4.17-2.25,4.39-1.11.26-4.82.39-11.13.39-4.98,0-7.47-.47-7.47-1.42,0-.85,3.68-11.25,11.04-31.2,7.98-21.58,12.3-33.45,12.99-35.6.39-1.24.85-1.86,1.37-1.86.88,0,2.24.08,4.08.24,1.84.16,3.21.24,4.13.24s2.17-.06,3.88-.17c1.71-.11,2.99-.17,3.83-.17.62,0,1.19.54,1.71,1.61,1.59,3.42,6.25,15.14,13.96,35.16,7.75,20.15,11.62,30.66,11.62,31.54ZM296.19,24.61c-.68,1.43-1.84,4.54-3.47,9.33-1.76,5.08-2.64,8.06-2.64,8.94,0,.59.98.91,2.93.98,1.01.07,2.67.1,4.98.1,2.15,0,3.34-.26,3.56-.78.07-.16.1-.39.1-.68,0-1.07-.75-4.04-2.25-8.89-1.46-4.69-2.54-7.68-3.22-8.98Z"/>
      <path class="cls-1" d="M392.82,59.28c0,.52-.34,1.2-1.03,2.05-5.99,7.13-13.95,10.69-23.88,10.69s-18.39-3.47-24.71-10.4c-6.15-6.71-9.23-15.17-9.23-25.39s3.01-18.29,9.03-25.2c6.28-7.23,14.27-10.84,23.97-10.84,10.55,0,18.82,3.24,24.8,9.72.65.72.98,1.35.98,1.9,0,.62-1.13,2.91-3.39,6.88-2.26,3.97-3.69,6.2-4.27,6.69-.26.26-.59.39-.98.39-.16,0-.98-.65-2.44-1.95-1.76-1.56-3.48-2.78-5.18-3.66-2.57-1.3-5.24-1.95-8.01-1.95-4.79,0-8.61,1.79-11.47,5.37-2.64,3.32-3.96,7.42-3.96,12.3s1.32,9.1,3.96,12.45c2.86,3.65,6.69,5.47,11.47,5.47,2.83,0,5.52-.62,8.06-1.86,1.66-.81,3.35-1.95,5.08-3.42,1.43-1.24,2.23-1.86,2.39-1.86.33,0,.65.18.98.54.52.59,1.94,2.62,4.25,6.1,2.38,3.61,3.56,5.6,3.56,5.96Z"/>
      <path class="cls-1" d="M445.65,16.75c0,.65-.36.98-1.07.98-1.24,0-6.14-.24-14.7-.73-.2,8.24-.29,13.98-.29,17.24,0,3.84.15,9.62.46,17.33.31,7.71.46,13.49.46,17.33,0,.62-.15,1.01-.44,1.17-.1.07-.55.15-1.37.24-1.95.26-4.82.39-8.59.39-4.2,0-7.15-.13-8.84-.39-.91-.16-1.37-.67-1.37-1.51,0-3.84.16-9.6.49-17.29.33-7.68.49-13.44.49-17.29,0-2.54-.13-8.2-.39-16.99-6.51.65-11.7.98-15.58.98-.52,0-.78-.16-.78-.49,0-.42.23-1.68.68-3.76.52-2.28.81-3.66.88-4.15.1-1.53.21-3.06.34-4.59.23-2.44.62-3.66,1.17-3.66.07,0,.29.02.68.05,5.27.68,13.07,1.03,23.39,1.03,2.93,0,8.33-.31,16.21-.93,4.23-.33,6.36-.49,6.4-.49.65,0,1.03.04,1.12.12.1.08.16.4.2.95,0,.88-.03,2.1-.1,3.66-.07,1.73-.1,2.95-.1,3.66,0,.81.11,2.01.32,3.59.21,1.58.32,2.76.32,3.54Z"/>
    </g>
  </g>
</svg>