<?xml version="1.0" encoding="UTF-8"?>
<svg id="_レイヤー_2" data-name="レイヤー 2" xmlns="http://www.w3.org/2000/svg" viewBox="0 0 84.45 21.64">
  <defs>
    <style>
      .cls-1 {
        fill: #3d563e;
      }
    </style>
  </defs>
  <g id="_固定" data-name="固定">
    <g>
      <path class="cls-1" d="M19.66,20.64c0,.21-.04.33-.13.38-.04.03-.18.05-.41.07-.6.06-1.44.09-2.52.09-1.53,0-2.43-.03-2.7-.09-.27-.06-.4-.19-.4-.4,0-.77.04-1.93.11-3.48.07-1.55.11-2.71.11-3.48,0-.38-.11-.6-.32-.66-.33-.08-1.51-.12-3.54-.12s-3.23.04-3.57.12c-.21.05-.32.27-.32.66,0,.76.02,1.9.07,3.42s.07,2.66.07,3.42c0,.29-.13.46-.4.51-.31.06-1.23.09-2.75.09-1.32,0-2.16-.03-2.52-.09-.28-.05-.42-.2-.42-.45,0-1.05.05-2.65.15-4.78.1-2.13.15-3.73.15-4.79,0-1.13-.05-2.83-.15-5.1S.01,2,.01.86C.01.65.12.54.32.54c.3,0,.76.01,1.37.04s1.07.04,1.37.04.78-.01,1.41-.04c.63-.03,1.1-.04,1.41-.04.17,0,.25.09.25.26,0,.73-.05,1.83-.16,3.29s-.16,2.56-.16,3.29c0,.34.09.54.28.6.25.08,1.5.12,3.75.12,2.09,0,3.3-.04,3.63-.12.23-.06.35-.26.35-.6,0-.7-.03-1.77-.1-3.19s-.1-2.49-.1-3.2c0-.3.12-.45.37-.45.28,0,.71.01,1.3.04s1.02.04,1.31.04.71-.01,1.3-.04,1.02-.04,1.31-.04.42.12.42.35c0,1.12-.05,2.82-.14,5.08-.09,2.27-.14,3.96-.14,5.1,0,1.06.05,2.66.15,4.79.1,2.13.15,3.72.15,4.78Z"/>
      <path class="cls-1" d="M42.7,10.84c0,3.05-.97,5.6-2.92,7.66-1.98,2.09-4.49,3.13-7.53,3.13s-5.52-1.05-7.51-3.16c-1.95-2.06-2.93-4.6-2.93-7.63s.98-5.59,2.93-7.66c1.99-2.12,4.5-3.18,7.51-3.18s5.5,1.06,7.5,3.18c1.96,2.09,2.94,4.64,2.94,7.66ZM37.15,10.81c0-1.46-.44-2.71-1.33-3.74-.93-1.07-2.11-1.61-3.56-1.61s-2.54.56-3.5,1.67c-.93,1.07-1.39,2.31-1.39,3.71,0,1.49.43,2.74,1.3,3.74.92,1.04,2.11,1.57,3.59,1.57,1.38,0,2.55-.55,3.52-1.66.92-1.05,1.38-2.28,1.38-3.68Z"/>
      <path class="cls-1" d="M66.72,20.64c0,.3-.14.45-.42.45h-5.19c-.28,0-.42-.17-.42-.51,0-.99.04-2.47.11-4.44.07-1.97.11-3.45.11-4.44,0-.28-.04-.43-.13-.45-.11.06-.76,1.57-1.96,4.53-.7,1.74-1.41,3.47-2.11,5.2-.1.22-.22.36-.37.4-.05,0-.24.01-.59.01-.51,0-.81-.1-.91-.29-.53-1.07-1.22-2.64-2.08-4.69-.92-2.17-1.61-3.74-2.07-4.7-.02-.05-.06-.1-.13-.16-.07.09-.1.23-.1.42,0,.96.02,2.39.07,4.31s.07,3.35.07,4.31c0,.34-.14.51-.41.51h-4.89c-.2,0-.32-.03-.36-.1-.04-.06-.07-.17-.07-.33,0-1.06.05-2.66.15-4.8.1-2.13.15-3.73.15-4.8,0-1.13-.05-3.26-.15-6.37,0-.81-.05-2.02-.13-3.62v-.25c-.02-.2.18-.29.6-.29.54,0,1.34-.02,2.42-.05s1.88-.05,2.42-.05c.11,0,.26.21.45.62l4.28,9.39c.3.63.56.95.76.95.11,0,.34-.37.69-1.1.99-2.05,2.45-5.14,4.38-9.27.17-.38.35-.57.54-.57.28,0,.71.01,1.28.04.57.03,1,.04,1.3.04.24,0,.62-.02,1.12-.07s.88-.07,1.12-.07c.29,0,.44.12.44.35,0,1.15-.04,2.87-.12,5.16s-.12,4.01-.12,5.16c0,1.06.04,2.66.13,4.79s.13,3.72.13,4.78Z"/>
      <path class="cls-1" d="M84.45,16.54c0,.42-.08,1.19-.25,2.31-.18,1.22-.33,1.95-.47,2.18-.12.19-.28.28-.48.28-.09,0-.23-.01-.44-.04-.71-.1-2.79-.15-6.24-.15-.75,0-1.87,0-3.35-.01s-2.6-.01-3.34-.01c-.32,0-.48-.14-.48-.42,0-1.09.06-2.74.18-4.93.12-2.19.18-3.84.18-4.93s-.06-3.19-.18-6.23c-.03-.78-.08-1.95-.16-3.5v-.21c-.03-.22.09-.34.35-.34.72,0,1.81.02,3.26.06,1.45.04,2.54.06,3.26.06s1.79-.02,3.22-.06,2.51-.06,3.22-.06c.51,0,.8.19.88.57.05.22.12.91.23,2.04.1,1.14.15,1.83.15,2.07,0,.21-.1.31-.29.31-.06,0-.16,0-.31-.01-2.6-.21-4.93-.32-7-.32-.52,0-.83.12-.95.37-.05.12-.07.49-.07,1.13s.1,1.1.29,1.32c.17.19.48.28.95.28.1,0,.29,0,.57-.02s.52-.02.7-.02c1.23,0,2.48-.03,3.74-.1l.81-.07c.33-.04.6-.06.79-.06.23,0,.35.11.35.34,0-.21-.09.54-.26,2.24-.08.78-.12,1.56-.12,2.34,0,.2-.14.29-.42.29l-1.32-.15c-.56-.06-1.83-.09-3.81-.09h-1.55c-.4,0-.63.1-.7.29,0,.05-.01.35-.01.91,0,.74.05,1.22.15,1.44.17.37.79.59,1.88.66-.02,0,.69,0,2.14,0,.52,0,1.29-.05,2.31-.14s1.79-.14,2.29-.14c.21,0,.32.18.32.53Z"/>
    </g>
  </g>
</svg>