<?xml version="1.0" encoding="UTF-8"?>
<svg id="_レイヤー_2" data-name="レイヤー 2" xmlns="http://www.w3.org/2000/svg" viewBox="0 0 200.01 43.86">
  <defs>
    <style>
      .cls-1 {
        fill: #3d563e;
      }
    </style>
  </defs>
  <g id="_固定" data-name="固定">
    <g>
      <path class="cls-1" d="M53,16.23c0,.06-1.82,3.99-5.45,11.81-3.69,7.97-5.8,12.45-6.33,13.45-.18.35-.28.55-.32.59-.08.1-.26.19-.56.26-.49.12-1.88.18-4.16.18-2.13,0-3.43-.06-3.9-.18-.39-.1-.62-.18-.7-.23s-.21-.24-.38-.56c-.12-.21-.67-1.59-1.67-4.13l-3.19-8.14-3.25,8.23c-.33.94-.88,2.29-1.64,4.04-.2.33-.33.53-.41.6-.08.07-.3.13-.67.19-.66.12-1.94.18-3.84.18-2.34,0-3.75-.06-4.22-.18-.33-.08-.61-.36-.82-.85C3.83,25.76,0,17.34,0,16.23c0-1.56.05-3.9.16-7.02.11-3.12.16-5.45.16-7.02,0-.64.2-.97.59-.97,1.11,0,2.8.05,5.05.15,2.26.1,3.95.15,5.08.15.45,0,.67.19.67.56,0,1.56-.07,3.92-.22,7.08-.15,3.15-.22,5.51-.22,7.08,0,.59.71,2.45,2.14,5.6,1.29,2.81,2.23,4.72,2.81,5.71.29.51.49.76.59.76.16,0,.56-.94,1.2-2.81,1.84-5.25,2.77-8.36,2.81-9.32.08-1.8.09-4.08.03-6.86-.06-4-.09-6.3-.09-6.88,0-.37.03-.59.09-.66.06-.07.27-.13.64-.19,1-.12,2.71-.18,5.16-.18,3.73,0,5.6.26,5.6.79,0,1.31-.05,3.34-.15,6.09-.1,2.68-.14,4.71-.12,6.09v1.49c0,1,1.01,4.17,3.02,9.52.68,1.86,1.09,2.78,1.23,2.78.1,0,.29-.25.59-.76.55-.96,1.43-2.85,2.64-5.68,1.35-3.09,2.02-4.92,2.02-5.51,0-1.58-.07-3.95-.22-7.1-.15-3.15-.22-5.51-.22-7.08,0-.35.22-.53.67-.53,1.15,0,2.89-.05,5.2-.15,2.31-.1,4.05-.15,5.2-.15.37,0,.56.39.56,1.17,0,1.54.05,3.85.16,6.93s.16,5.38.16,6.9Z"/>
      <path class="cls-1" d="M98,21.83c0,6.09-1.94,11.2-5.83,15.32-3.96,4.18-8.98,6.27-15.06,6.27s-11.04-2.11-15.03-6.33c-3.91-4.12-5.86-9.21-5.86-15.26s1.95-11.18,5.86-15.32c3.98-4.24,8.99-6.36,15.03-6.36s11,2.12,15,6.36c3.93,4.18,5.89,9.29,5.89,15.32ZM86.89,21.77c0-2.93-.89-5.42-2.67-7.47-1.86-2.15-4.23-3.22-7.12-3.22s-5.09,1.11-7,3.34c-1.86,2.15-2.78,4.62-2.78,7.41,0,2.99.87,5.48,2.61,7.47,1.84,2.09,4.23,3.13,7.18,3.13,2.75,0,5.1-1.1,7.03-3.31,1.84-2.11,2.75-4.56,2.75-7.35Z"/>
      <path class="cls-1" d="M137.29,42.04c0,.14-.2.23-.59.29-.74.12-2.61.18-5.6.18-2.56,0-4.3-.06-5.21-.18-.43-.06-.67-.11-.73-.15-.12-.06-.25-.25-.41-.59-.29-.76-.72-1.89-1.29-3.4-.76-1.95-1.95-4.83-3.57-8.64-.35-.76-1.16-1.18-2.43-1.26.59.04-.42.06-3.02.06-.29,0-.44.5-.44,1.49,0,1.33.12,3.31.37,5.95s.37,4.62.37,5.95c0,.33-.09.53-.26.59-.27.02-.55.04-.82.06-1.15.08-2.95.12-5.39.12-2.79,0-4.47-.06-5.04-.18s-.85-.42-.85-.91c0-2.15.1-5.39.31-9.73s.31-7.59.31-9.76c0-8.26-.19-14.71-.56-19.34l-.03-.41c-.02-.33.29-.56.92-.67s3.62-.23,8.95-.35c3.61-.08,6.49-.12,8.64-.12,4.45,0,8.09,1.01,10.9,3.02,3.18,2.27,4.78,5.54,4.78,9.81,0,2.85-.41,5.13-1.23,6.83s-2.33,3.35-4.54,4.95c-.45.31-.67.61-.67.88,0-.02,1.19,2.43,3.57,7.35s3.57,7.64,3.57,8.14ZM124.98,15.76c0-2.38-.78-4.03-2.34-4.95-1.21-.7-3.11-1.05-5.68-1.05-1.86,0-2.84.28-2.96.85-.12.66-.18,2.58-.18,5.74,0,.45,0,1.11.03,1.99s.03,1.53.03,1.96c0,.1.31.2.94.29,1.19.18,2.44.26,3.75.26,4.28,0,6.42-1.7,6.42-5.1Z"/>
      <path class="cls-1" d="M176.66,40.69c0,.84-.36,1.39-1.08,1.64-.59.19-2.13.29-4.63.29s-4.16-.1-5.27-.29c-.53-.1-.87-.2-1.04-.31-.17-.11-.38-.39-.63-.83-1.43-2.62-2.84-5.23-4.25-7.85-2.32-4.22-3.71-6.54-4.16-6.97-2.11.76-3.16,1.31-3.16,1.64,0,1.46.06,3.68.18,6.64s.18,5.18.18,6.67c0,.61-.26.95-.79,1.03-1.02.16-2.85.23-5.51.23s-4.22-.08-5.04-.23c-.57-.12-.85-.42-.85-.91,0-2.11.1-5.29.31-9.55.21-4.26.31-7.45.31-9.58,0-2.27-.1-5.67-.29-10.21s-.29-7.94-.29-10.21c0-.43.21-.64.62-.64.61,0,1.52.03,2.74.09s2.13.09,2.74.09,1.55-.03,2.78-.09,2.15-.09,2.75-.09c.33,0,.5.18.5.53,0,1.45-.07,3.63-.22,6.55-.15,2.92-.22,5.1-.22,6.55,0,1.68.46,2.52,1.38,2.52,2.32,0,4.13-.63,5.42-1.9.96-.94,1.92-2.65,2.9-5.13.62-1.89,1.65-4.69,3.08-8.38.21-.49.65-.73,1.32-.73.51,0,1.27.03,2.3.09s1.79.09,2.3.09,1.31-.02,2.36-.06c1.04-.04,1.82-.06,2.33-.06.47,0,.7.22.7.67,0,.64-.41,2.22-1.23,4.72-2.42,7.38-5.21,11.99-8.35,13.83-.64.37-.97.67-.97.91,0-.02,1.8,2.91,5.41,8.79,3.6,5.88,5.41,9.38,5.41,10.49Z"/>
      <path class="cls-1" d="M200.01,28.86c0,3.97-1.67,7.36-5.01,10.2-2.93,2.5-6.49,4.09-10.69,4.78-.16.02-.28.03-.38.03-.45,0-1.45-1.37-2.99-4.12s-2.31-4.42-2.31-5.02c0-.21.15-.35.44-.41,2.83-.64,4.71-1.19,5.62-1.64,2.03-1.02,3.05-2.52,3.05-4.51,0-1.27-.66-2.69-1.99-4.25-2.3-2.66-3.55-4.13-3.75-4.42-1.35-2.03-2.02-4.28-2.02-6.74,0-3.57,1.65-6.54,4.95-8.91,2.7-1.95,6.01-3.22,9.93-3.81.21-.02.38-.03.5-.03.29,0,.53.23.7.7.51,1.43,1.69,4,3.54,7.73.06.12.09.22.09.29,0,.33-.18.5-.53.5-.16,0-.42-.03-.79-.09s-.65-.09-.85-.09c-1.41,0-2.64.32-3.69.97-1.27.74-1.9,1.78-1.9,3.11,0,1.19.7,2.66,2.11,4.39,2.48,3.12,3.78,4.77,3.9,4.92,1.39,2.15,2.08,4.29,2.08,6.42Z"/>
    </g>
  </g>
</svg>