<?xml version="1.0" encoding="UTF-8"?>
<svg id="_レイヤー_2" data-name="レイヤー 2" xmlns="http://www.w3.org/2000/svg" viewBox="0 0 229.65 50.48">
  <defs>
    <style>
      .cls-1 {
        fill: #e6dfcb;
      }
    </style>
  </defs>
  <g id="_固定" data-name="固定">
    <g>
      <path class="cls-1" d="M48.02,48.36c0,.41-.29.7-.85.85-.68.18-2.8.27-6.36.27-3.26,0-5.36-.09-6.29-.27-.78-.16-1.26-.67-1.47-1.54-.78-3.28-1.38-5.04-1.81-5.26-.37-.16-3.42-.24-9.16-.24-3.87,0-5.94.1-6.19.31-.39.36-.82,1.58-1.3,3.66-.43,1.89-.96,2.92-1.57,3.08-.78.18-3.37.27-7.79.27-3.49,0-5.23-.33-5.23-.99,0-.59,2.57-7.87,7.72-21.84C13.31,11.55,16.34,3.25,16.82,1.74c.27-.87.59-1.3.96-1.3.62,0,1.57.06,2.85.17,1.29.11,2.25.17,2.89.17s1.52-.04,2.72-.12c1.2-.08,2.09-.12,2.68-.12.43,0,.83.38,1.2,1.13,1.12,2.39,4.38,10.6,9.78,24.61,5.42,14.1,8.13,21.46,8.13,22.08ZM23.79,17.23c-.48,1-1.29,3.18-2.43,6.53-1.23,3.55-1.85,5.64-1.85,6.25,0,.41.68.64,2.05.68.71.05,1.87.07,3.49.07,1.5,0,2.33-.18,2.5-.55.04-.11.07-.27.07-.48,0-.75-.52-2.83-1.57-6.22-1.03-3.28-1.78-5.38-2.26-6.29Z"/>
      <path class="cls-1" d="M91.91,34.45c0,4.19-1.31,7.67-3.93,10.42-2.99,3.17-8.23,4.75-15.72,4.75-.57,0-1.39-.01-2.46-.03h-2.43c-8.41,0-13.41-.17-15-.51-.66-.14-.99-.49-.99-1.06,0-2.44.14-6.13.43-11.07.28-4.94.43-8.65.43-11.11,0-2.64-.14-7.61-.41-14.9-.07-1.87-.19-4.67-.38-8.41l-.03-.48c-.02-.43.34-.69,1.08-.79.74-.09,3.38-.14,7.91-.14,7.27,0,11.52.02,12.75.07,5.61.21,9.74,1.12,12.41,2.73,3.53,2.17,5.3,5.82,5.3,10.97,0,1.34-.41,2.77-1.23,4.27-.59,1.07-1.37,2.14-2.32,3.21-.84.93-1.26,1.37-1.26,1.3,0,.16.3.41.89.75,1.59.91,2.85,2.36,3.76,4.34.82,1.78,1.23,3.67,1.23,5.67ZM77.21,15.21c0-1.96-.98-3.26-2.94-3.9-1.09-.34-2.89-.51-5.4-.51s-3.69.18-3.69.55c0,.43-.04,1.09-.12,1.97-.08.88-.12,1.53-.12,1.97,0,2.28.19,3.55.58,3.83.25.21,1.7.31,4.34.31,4.9,0,7.35-1.4,7.35-4.2ZM78.24,34.32c0-2.05-.85-3.44-2.56-4.17-1.09-.46-2.87-.68-5.33-.68-2.94,0-4.54.11-4.79.32-.25.22-.38,1.61-.38,4.19s.15,4.18.44,4.46c.3.29,1.94.43,4.92.43,2.46,0,4.19-.19,5.2-.58,1.66-.66,2.5-1.98,2.5-3.96Z"/>
      <path class="cls-1" d="M143.73,25.29c0,7.11-2.27,13.07-6.8,17.88-4.63,4.88-10.48,7.31-17.57,7.31s-12.89-2.46-17.53-7.38c-4.56-4.81-6.84-10.74-6.84-17.81s2.28-13.04,6.84-17.88c4.65-4.94,10.49-7.42,17.53-7.42s12.83,2.47,17.5,7.42c4.58,4.88,6.87,10.83,6.87,17.88ZM130.77,25.22c0-3.42-1.04-6.32-3.11-8.72-2.17-2.51-4.93-3.76-8.31-3.76s-5.94,1.3-8.17,3.9c-2.17,2.51-3.25,5.39-3.25,8.65,0,3.49,1.01,6.39,3.04,8.72,2.14,2.44,4.93,3.66,8.37,3.66,3.21,0,5.95-1.29,8.2-3.86,2.14-2.46,3.21-5.32,3.21-8.58Z"/>
      <path class="cls-1" d="M189.63,32.44c0,5.81-.7,9.78-2.08,11.89-2.55,3.87-8.92,5.81-19.11,5.81-4.6,0-8.15-.35-10.63-1.06-3.96-1.14-6.54-3.32-7.72-6.53-.59-1.57-.89-4.38-.89-8.41,0-.93.03-2.32.1-4.17s.1-3.22.1-4.14c0-2.64-.13-6.61-.38-11.89-.25-5.29-.38-9.24-.38-11.86,0-.55.24-.82.72-.82,1.39,0,3.49.06,6.31.17,2.81.11,4.92.17,6.31.17.57,0,.85.25.85.75,0,3.01-.1,7.51-.29,13.52-.19,6-.29,10.51-.29,13.52,0,3.58.38,5.99,1.13,7.25,1,1.71,3.1,2.56,6.29,2.56,4.67,0,7.01-2.27,7.01-6.8,0-3.3-.08-8.26-.24-14.87-.16-6.61-.24-11.56-.24-14.87,0-.71.28-1.06.85-1.06,1.34,0,3.37-.06,6.08-.17,2.71-.11,4.74-.17,6.08-.17.66,0,.99.27.99.82,0,2.62-.11,6.57-.33,11.86-.22,5.29-.32,9.25-.32,11.89,0,.73.01,1.83.03,3.3.02,1.47.03,2.57.03,3.3Z"/>
      <path class="cls-1" d="M229.65,11.72c0,.46-.25.68-.75.68-.87,0-4.3-.17-10.29-.51-.14,5.77-.21,9.79-.21,12.07,0,2.69.11,6.73.33,12.13.22,5.4.32,9.45.32,12.13,0,.43-.1.71-.31.82-.07.05-.39.1-.96.17-1.37.18-3.37.27-6.02.27-2.94,0-5-.09-6.19-.27-.64-.11-.96-.47-.96-1.06,0-2.69.11-6.72.34-12.1.23-5.38.34-9.41.34-12.1,0-1.78-.09-5.74-.27-11.89-4.56.46-8.19.68-10.9.68-.37,0-.55-.11-.55-.34,0-.3.16-1.17.48-2.63.36-1.59.57-2.56.62-2.91.07-1.07.15-2.14.24-3.21.16-1.71.43-2.56.82-2.56.04,0,.21.01.48.03,3.69.48,9.15.72,16.37.72,2.05,0,5.83-.22,11.35-.65,2.96-.23,4.45-.34,4.48-.34.46,0,.72.03.79.09.07.06.11.28.14.67,0,.62-.02,1.47-.07,2.56-.05,1.21-.07,2.06-.07,2.56,0,.57.07,1.41.22,2.51.15,1.11.22,1.93.22,2.48Z"/>
    </g>
  </g>
</svg>