<?xml version="1.0" encoding="UTF-8"?>
<svg id="_レイヤー_2" data-name="レイヤー 2" xmlns="http://www.w3.org/2000/svg" viewBox="0 0 98.42 21.64">
  <defs>
    <style>
      .cls-1 {
        fill: #e6dfcb;
      }
    </style>
  </defs>
  <g id="_固定" data-name="固定">
    <g>
      <path class="cls-1" d="M20.58,20.73c0,.18-.12.3-.37.37-.29.08-1.2.12-2.72.12-1.4,0-2.29-.04-2.7-.12-.33-.07-.54-.29-.63-.66-.33-1.41-.59-2.16-.78-2.26-.16-.07-1.46-.1-3.93-.1-1.66,0-2.54.04-2.65.13-.17.16-.35.68-.56,1.57-.19.81-.41,1.25-.67,1.32-.33.08-1.45.12-3.34.12-1.49,0-2.24-.14-2.24-.42,0-.25,1.1-3.37,3.31-9.36C5.7,4.95,7,1.39,7.21.75c.12-.37.25-.56.41-.56.26,0,.67.02,1.22.07s.96.07,1.24.07.65-.02,1.16-.05c.51-.03.9-.05,1.15-.05.19,0,.36.16.51.48.48,1.03,1.88,4.54,4.19,10.55,2.32,6.04,3.49,9.2,3.49,9.46ZM10.2,7.38c-.21.43-.55,1.36-1.04,2.8-.53,1.52-.79,2.42-.79,2.68,0,.18.29.27.88.29.3.02.8.03,1.49.03.64,0,1-.08,1.07-.23.02-.05.03-.12.03-.21,0-.32-.22-1.21-.67-2.67-.44-1.41-.76-2.3-.97-2.7Z"/>
      <path class="cls-1" d="M39.39,14.77c0,1.8-.56,3.29-1.68,4.47-1.28,1.36-3.53,2.04-6.74,2.04-.24,0-.6,0-1.05-.01h-1.04c-3.6,0-5.75-.07-6.43-.22-.28-.06-.42-.21-.42-.45,0-1.04.06-2.63.18-4.75.12-2.12.18-3.71.18-4.76,0-1.13-.06-3.26-.18-6.39-.03-.8-.08-2-.16-3.6v-.21c-.02-.19.13-.3.45-.34.32-.04,1.45-.06,3.39-.06,3.12,0,4.94,0,5.46.03,2.4.09,4.17.48,5.32,1.17,1.51.93,2.27,2.5,2.27,4.7,0,.58-.18,1.19-.53,1.83-.25.46-.59.92-1,1.38-.36.4-.54.59-.54.56,0,.07.13.18.38.32.68.39,1.22,1.01,1.61,1.86.35.76.53,1.57.53,2.43ZM33.09,6.52c0-.84-.42-1.4-1.26-1.67-.47-.15-1.24-.22-2.31-.22s-1.58.08-1.58.23c0,.19-.02.47-.05.84-.04.38-.05.66-.05.84,0,.98.08,1.52.25,1.64.11.09.73.13,1.86.13,2.1,0,3.15-.6,3.15-1.8ZM33.53,14.71c0-.88-.37-1.47-1.1-1.79-.47-.2-1.23-.29-2.29-.29-1.26,0-1.94.05-2.05.14s-.16.69-.16,1.79.06,1.79.19,1.91.83.18,2.11.18c1.05,0,1.8-.08,2.23-.25.71-.28,1.07-.85,1.07-1.7Z"/>
      <path class="cls-1" d="M61.6,10.84c0,3.05-.97,5.6-2.92,7.66-1.98,2.09-4.49,3.13-7.53,3.13s-5.52-1.05-7.51-3.16c-1.95-2.06-2.93-4.6-2.93-7.63s.98-5.59,2.93-7.66c1.99-2.12,4.5-3.18,7.51-3.18s5.5,1.06,7.5,3.18c1.96,2.09,2.94,4.64,2.94,7.66ZM56.04,10.81c0-1.46-.44-2.71-1.33-3.74-.93-1.07-2.11-1.61-3.56-1.61s-2.54.56-3.5,1.67c-.93,1.07-1.39,2.31-1.39,3.71,0,1.49.43,2.74,1.3,3.74.92,1.04,2.11,1.57,3.59,1.57,1.38,0,2.55-.55,3.52-1.66.92-1.05,1.38-2.28,1.38-3.68Z"/>
      <path class="cls-1" d="M81.27,13.9c0,2.49-.3,4.19-.89,5.1-1.09,1.66-3.82,2.49-8.19,2.49-1.97,0-3.49-.15-4.56-.45-1.7-.49-2.8-1.42-3.31-2.8-.25-.67-.38-1.88-.38-3.6,0-.4.01-1,.04-1.79s.04-1.38.04-1.77c0-1.13-.05-2.83-.16-5.1s-.16-3.96-.16-5.08c0-.23.1-.35.31-.35.6,0,1.5.02,2.7.07,1.21.05,2.11.07,2.7.07.24,0,.37.11.37.32,0,1.29-.04,3.22-.12,5.79s-.12,4.5-.12,5.79c0,1.53.16,2.57.48,3.11.43.73,1.33,1.1,2.7,1.1,2,0,3-.97,3-2.92,0-1.42-.03-3.54-.1-6.37s-.1-4.96-.1-6.37c0-.3.12-.45.37-.45.58,0,1.45-.02,2.61-.07s2.03-.07,2.61-.07c.28,0,.42.12.42.35,0,1.12-.05,2.82-.14,5.08s-.14,3.96-.14,5.1c0,.31,0,.78.01,1.41s.01,1.1.01,1.41Z"/>
      <path class="cls-1" d="M98.42,5.02c0,.2-.11.29-.32.29-.37,0-1.84-.07-4.41-.22-.06,2.47-.09,4.19-.09,5.17,0,1.15.05,2.89.14,5.2.09,2.31.14,4.05.14,5.2,0,.19-.04.3-.13.35-.03.02-.17.04-.41.07-.59.08-1.45.12-2.58.12-1.26,0-2.14-.04-2.65-.12-.27-.05-.41-.2-.41-.45,0-1.15.05-2.88.15-5.19s.15-4.03.15-5.19c0-.76-.04-2.46-.12-5.1-1.95.2-3.51.29-4.67.29-.16,0-.23-.05-.23-.15,0-.13.07-.5.21-1.13.16-.68.24-1.1.26-1.25.03-.46.06-.92.1-1.38.07-.73.19-1.1.35-1.1.02,0,.09,0,.21.01,1.58.21,3.92.31,7.02.31.88,0,2.5-.09,4.86-.28,1.27-.1,1.91-.15,1.92-.15.2,0,.31.01.34.04s.05.12.06.29c0,.26,0,.63-.03,1.1-.02.52-.03.88-.03,1.1,0,.24.03.6.09,1.08s.1.83.1,1.06Z"/>
    </g>
  </g>
</svg>