<?xml version="1.0" encoding="UTF-8"?>
<svg id="_レイヤー_2" data-name="レイヤー 2" xmlns="http://www.w3.org/2000/svg" viewBox="0 0 133.7 21.64">
  <defs>
    <style>
      .cls-1 {
        fill: #e6dfcb;
      }
    </style>
  </defs>
  <g id="_固定" data-name="固定">
    <g>
      <path class="cls-1" d="M17.65,17.78c0,.16-.1.36-.31.62-1.8,2.14-4.18,3.21-7.16,3.21s-5.52-1.04-7.41-3.12c-1.85-2.01-2.77-4.55-2.77-7.62S.9,5.38,2.71,3.31C4.59,1.14,6.99.06,9.9.06c3.16,0,5.64.97,7.44,2.92.2.21.29.41.29.57,0,.19-.34.87-1.02,2.07s-1.11,1.86-1.28,2.01c-.08.08-.18.12-.29.12-.05,0-.29-.2-.73-.59-.53-.47-1.04-.83-1.55-1.1-.77-.39-1.57-.59-2.4-.59-1.44,0-2.58.54-3.44,1.61-.79,1-1.19,2.23-1.19,3.69s.4,2.73,1.19,3.74c.86,1.09,2.01,1.64,3.44,1.64.85,0,1.66-.19,2.42-.56.5-.24,1.01-.59,1.52-1.03.43-.37.67-.56.72-.56.1,0,.2.05.29.16.16.18.58.79,1.27,1.83.71,1.08,1.07,1.68,1.07,1.79Z"/>
      <path class="cls-1" d="M39.58,10.84c0,3.05-.97,5.6-2.92,7.66-1.98,2.09-4.49,3.13-7.53,3.13s-5.52-1.05-7.51-3.16c-1.95-2.06-2.93-4.6-2.93-7.63s.98-5.59,2.93-7.66c1.99-2.12,4.5-3.18,7.51-3.18s5.5,1.06,7.5,3.18c1.96,2.09,2.94,4.64,2.94,7.66ZM34.03,10.81c0-1.46-.44-2.71-1.33-3.74-.93-1.07-2.11-1.61-3.56-1.61s-2.54.56-3.5,1.67c-.93,1.07-1.39,2.31-1.39,3.71,0,1.49.43,2.74,1.3,3.74.92,1.04,2.11,1.57,3.59,1.57,1.38,0,2.55-.55,3.52-1.66.92-1.05,1.38-2.28,1.38-3.68Z"/>
      <path class="cls-1" d="M61.36,1c0,1.11-.05,2.79-.14,5.02-.09,2.23-.14,3.91-.14,5.03v9.65c0,.26-.14.4-.42.4-.23,0-.59,0-1.06.03s-.83.03-1.06.03c-.25,0-.63-.02-1.14-.06s-.89-.06-1.14-.06c-.18,0-.39-.16-.63-.48-.7-.95-2.29-3.05-4.75-6.3-.67-.91-1.7-2.25-3.08-4.01-.04-.06-.11-.12-.22-.18-.08.07-.12.18-.12.32,0,1.13.03,2.83.09,5.1s.1,3.96.1,5.1c0,.34-.13.51-.4.51h-5.07c-.28,0-.42-.15-.42-.45,0-1.05.05-2.65.15-4.78.1-2.13.15-3.73.15-4.79,0-1.12-.05-2.8-.14-5.04s-.14-3.91-.14-5.02c0-.21.19-.32.57-.32.57,0,1.26-.04,2.09-.12.2-.02.58-.08,1.16-.19.49-.09.87-.13,1.16-.13.12,0,.3.17.54.5l5.46,7.49c.49.67,1.23,1.66,2.21,2.96.24.3.45.45.63.45.13,0,.19-.38.19-1.14,0-1.03-.06-2.57-.17-4.63s-.17-3.61-.17-4.64c0-.36.1-.54.31-.54.59,0,1.47-.02,2.65-.07s2.07-.07,2.65-.07c.19,0,.28.15.28.45Z"/>
      <path class="cls-1" d="M78.35,5.02c0,.2-.11.29-.32.29-.37,0-1.84-.07-4.41-.22-.06,2.47-.09,4.19-.09,5.17,0,1.15.05,2.89.14,5.2.09,2.31.14,4.05.14,5.2,0,.19-.04.3-.13.35-.03.02-.17.04-.41.07-.59.08-1.45.12-2.58.12-1.26,0-2.14-.04-2.65-.12-.27-.05-.41-.2-.41-.45,0-1.15.05-2.88.15-5.19s.15-4.03.15-5.19c0-.76-.04-2.46-.12-5.1-1.95.2-3.51.29-4.67.29-.16,0-.23-.05-.23-.15,0-.13.07-.5.21-1.13.16-.68.24-1.1.26-1.25.03-.46.06-.92.1-1.38.07-.73.19-1.1.35-1.1.02,0,.09,0,.21.01,1.58.21,3.92.31,7.02.31.88,0,2.5-.09,4.86-.28,1.27-.1,1.91-.15,1.92-.15.2,0,.31.01.34.04s.05.12.06.29c0,.26,0,.63-.03,1.1-.02.52-.03.88-.03,1.1,0,.24.03.6.09,1.08s.1.83.1,1.06Z"/>
      <path class="cls-1" d="M99.24,20.73c0,.18-.12.3-.37.37-.29.08-1.2.12-2.72.12-1.4,0-2.29-.04-2.7-.12-.33-.07-.54-.29-.63-.66-.33-1.41-.59-2.16-.78-2.26-.16-.07-1.46-.1-3.93-.1-1.66,0-2.54.04-2.65.13-.17.16-.35.68-.56,1.57-.19.81-.41,1.25-.67,1.32-.33.08-1.45.12-3.34.12-1.49,0-2.24-.14-2.24-.42,0-.25,1.1-3.37,3.31-9.36,2.39-6.47,3.69-10.03,3.9-10.68.12-.37.25-.56.41-.56.26,0,.67.02,1.22.07s.96.07,1.24.07.65-.02,1.16-.05c.51-.03.9-.05,1.15-.05.19,0,.36.16.51.48.48,1.03,1.88,4.54,4.19,10.55,2.32,6.04,3.49,9.2,3.49,9.46ZM88.86,7.38c-.21.43-.55,1.36-1.04,2.8-.53,1.52-.79,2.42-.79,2.68,0,.18.29.27.88.29.3.02.8.03,1.49.03.64,0,1-.08,1.07-.23.02-.05.03-.12.03-.21,0-.32-.22-1.21-.67-2.67-.44-1.41-.76-2.3-.97-2.7Z"/>
      <path class="cls-1" d="M117.85,17.78c0,.16-.1.36-.31.62-1.8,2.14-4.18,3.21-7.16,3.21s-5.52-1.04-7.41-3.12c-1.85-2.01-2.77-4.55-2.77-7.62s.9-5.49,2.71-7.56c1.88-2.17,4.28-3.25,7.19-3.25,3.16,0,5.64.97,7.44,2.92.2.21.29.41.29.57,0,.19-.34.87-1.02,2.07s-1.11,1.86-1.28,2.01c-.08.08-.18.12-.29.12-.05,0-.29-.2-.73-.59-.53-.47-1.04-.83-1.55-1.1-.77-.39-1.57-.59-2.4-.59-1.44,0-2.58.54-3.44,1.61-.79,1-1.19,2.23-1.19,3.69s.4,2.73,1.19,3.74c.86,1.09,2.01,1.64,3.44,1.64.85,0,1.66-.19,2.42-.56.5-.24,1.01-.59,1.52-1.03.43-.37.67-.56.72-.56.1,0,.2.05.29.16.16.18.58.79,1.27,1.83.71,1.08,1.07,1.68,1.07,1.79Z"/>
      <path class="cls-1" d="M133.7,5.02c0,.2-.11.29-.32.29-.37,0-1.84-.07-4.41-.22-.06,2.47-.09,4.19-.09,5.17,0,1.15.05,2.89.14,5.2.09,2.31.14,4.05.14,5.2,0,.19-.04.3-.13.35-.03.02-.17.04-.41.07-.59.08-1.45.12-2.58.12-1.26,0-2.14-.04-2.65-.12-.27-.05-.41-.2-.41-.45,0-1.15.05-2.88.15-5.19s.15-4.03.15-5.19c0-.76-.04-2.46-.12-5.1-1.95.2-3.51.29-4.67.29-.16,0-.23-.05-.23-.15,0-.13.07-.5.21-1.13.16-.68.24-1.1.26-1.25.03-.46.06-.92.1-1.38.07-.73.19-1.1.35-1.1.02,0,.09,0,.21.01,1.58.21,3.92.31,7.02.31.88,0,2.5-.09,4.86-.28,1.27-.1,1.91-.15,1.92-.15.2,0,.31.01.34.04s.05.12.06.29c0,.26,0,.63-.03,1.1-.02.52-.03.88-.03,1.1,0,.24.03.6.09,1.08s.1.83.1,1.06Z"/>
    </g>
  </g>
</svg>