<?xml version="1.0" encoding="UTF-8"?>
<svg id="_レイヤー_2" data-name="レイヤー 2" xmlns="http://www.w3.org/2000/svg" viewBox="0 0 311.96 50.48">
  <defs>
    <style>
      .cls-1 {
        fill: #3d563e;
      }
    </style>
  </defs>
  <g id="_固定" data-name="固定">
    <g>
      <path class="cls-1" d="M41.19,41.49c0,.36-.24.84-.72,1.44-4.19,4.99-9.76,7.49-16.71,7.49s-12.88-2.43-17.29-7.28C2.15,38.44,0,32.52,0,25.36S2.11,12.56,6.32,7.72C10.72,2.67,16.31.14,23.11.14c7.38,0,13.17,2.27,17.36,6.8.46.5.68.95.68,1.33,0,.43-.79,2.04-2.38,4.82-1.58,2.78-2.58,4.34-2.99,4.68-.18.18-.41.27-.68.27-.11,0-.68-.46-1.71-1.37-1.23-1.09-2.44-1.95-3.62-2.56-1.8-.91-3.67-1.37-5.61-1.37-3.35,0-6.03,1.25-8.03,3.76-1.85,2.32-2.77,5.2-2.77,8.61s.92,6.37,2.77,8.72c2,2.55,4.68,3.83,8.03,3.83,1.98,0,3.86-.43,5.64-1.3,1.16-.57,2.35-1.37,3.55-2.39,1-.87,1.56-1.3,1.67-1.3.23,0,.46.13.68.38.36.41,1.36,1.83,2.97,4.27,1.66,2.53,2.5,3.92,2.5,4.17Z"/>
      <path class="cls-1" d="M92.35,25.29c0,7.11-2.27,13.07-6.8,17.88-4.63,4.88-10.48,7.31-17.57,7.31s-12.89-2.46-17.53-7.38c-4.56-4.81-6.84-10.74-6.84-17.81s2.28-13.04,6.84-17.88c4.65-4.94,10.49-7.42,17.53-7.42s12.83,2.47,17.5,7.42c4.58,4.88,6.87,10.83,6.87,17.88ZM79.4,25.22c0-3.42-1.04-6.32-3.11-8.72-2.17-2.51-4.93-3.76-8.31-3.76s-5.94,1.3-8.17,3.9c-2.17,2.51-3.25,5.39-3.25,8.65,0,3.49,1.01,6.39,3.04,8.72,2.14,2.44,4.93,3.66,8.37,3.66,3.21,0,5.95-1.29,8.2-3.86,2.14-2.46,3.21-5.32,3.21-8.58Z"/>
      <path class="cls-1" d="M143.18,2.32c0,2.6-.11,6.5-.32,11.71-.22,5.21-.33,9.12-.33,11.74v22.52c0,.62-.33.92-.99.92-.55,0-1.37.02-2.48.07-1.11.05-1.93.07-2.48.07-.59,0-1.48-.05-2.67-.14-1.19-.09-2.07-.14-2.67-.14-.41,0-.9-.38-1.47-1.13-1.64-2.21-5.33-7.11-11.07-14.7-1.57-2.12-3.96-5.24-7.18-9.37-.09-.14-.26-.27-.51-.41-.18.16-.27.41-.27.75,0,2.64.07,6.61.22,11.89.15,5.29.22,9.25.22,11.89,0,.8-.31,1.2-.92,1.2h-11.83c-.66,0-.99-.35-.99-1.06,0-2.46.12-6.17.36-11.14.24-4.97.36-8.69.36-11.18,0-2.62-.11-6.54-.33-11.76-.22-5.22-.32-9.13-.32-11.72,0-.5.44-.75,1.33-.75,1.32,0,2.95-.09,4.89-.27.46-.05,1.36-.19,2.7-.44,1.14-.21,2.04-.31,2.7-.31.27,0,.69.39,1.26,1.16l12.75,17.47c1.14,1.57,2.86,3.87,5.16,6.9.57.71,1.06,1.06,1.47,1.06.3,0,.44-.89.44-2.67,0-2.39-.13-5.99-.39-10.8-.26-4.81-.39-8.42-.39-10.83,0-.84.24-1.26.72-1.26,1.37,0,3.43-.06,6.19-.17,2.76-.11,4.82-.17,6.19-.17.43,0,.65.35.65,1.06Z"/>
      <path class="cls-1" d="M182.83,11.72c0,.46-.25.68-.75.68-.87,0-4.3-.17-10.29-.51-.14,5.77-.21,9.79-.21,12.07,0,2.69.11,6.73.33,12.13.22,5.4.32,9.45.32,12.13,0,.43-.1.71-.31.82-.07.05-.39.1-.96.17-1.37.18-3.37.27-6.02.27-2.94,0-5-.09-6.19-.27-.64-.11-.96-.47-.96-1.06,0-2.69.11-6.72.34-12.1.23-5.38.34-9.41.34-12.1,0-1.78-.09-5.74-.27-11.89-4.56.46-8.19.68-10.9.68-.37,0-.55-.11-.55-.34,0-.3.16-1.17.48-2.63.36-1.59.57-2.56.62-2.91.07-1.07.15-2.14.24-3.21.16-1.71.43-2.56.82-2.56.04,0,.21.01.48.03,3.69.48,9.15.72,16.37.72,2.05,0,5.83-.22,11.35-.65,2.96-.23,4.45-.34,4.48-.34.46,0,.72.03.79.09.07.06.11.28.14.67,0,.62-.02,1.47-.07,2.56-.05,1.21-.07,2.06-.07,2.56,0,.57.07,1.41.22,2.51.15,1.11.22,1.93.22,2.48Z"/>
      <path class="cls-1" d="M231.57,48.36c0,.41-.29.7-.85.85-.68.18-2.8.27-6.36.27-3.26,0-5.36-.09-6.29-.27-.78-.16-1.26-.67-1.47-1.54-.78-3.28-1.38-5.04-1.81-5.26-.37-.16-3.42-.24-9.16-.24-3.87,0-5.94.1-6.19.31-.39.36-.82,1.58-1.3,3.66-.43,1.89-.96,2.92-1.57,3.08-.78.18-3.37.27-7.79.27-3.49,0-5.23-.33-5.23-.99,0-.59,2.57-7.87,7.72-21.84,5.58-15.11,8.61-23.41,9.09-24.92.27-.87.59-1.3.96-1.3.62,0,1.57.06,2.85.17,1.29.11,2.25.17,2.89.17s1.52-.04,2.72-.12c1.2-.08,2.09-.12,2.68-.12.43,0,.83.38,1.2,1.13,1.12,2.39,4.38,10.6,9.78,24.61,5.42,14.1,8.13,21.46,8.13,22.08ZM207.33,17.23c-.48,1-1.29,3.18-2.43,6.53-1.23,3.55-1.85,5.64-1.85,6.25,0,.41.68.64,2.05.68.71.05,1.87.07,3.49.07,1.5,0,2.33-.18,2.5-.55.04-.11.07-.27.07-.48,0-.75-.52-2.83-1.57-6.22-1.03-3.28-1.78-5.38-2.26-6.29Z"/>
      <path class="cls-1" d="M274.98,41.49c0,.36-.24.84-.72,1.44-4.19,4.99-9.76,7.49-16.71,7.49s-12.88-2.43-17.29-7.28c-4.31-4.69-6.46-10.62-6.46-17.77s2.11-12.81,6.32-17.64c4.4-5.06,9.99-7.59,16.78-7.59,7.38,0,13.17,2.27,17.36,6.8.46.5.68.95.68,1.33,0,.43-.79,2.04-2.38,4.82-1.58,2.78-2.58,4.34-2.99,4.68-.18.18-.41.27-.68.27-.11,0-.68-.46-1.71-1.37-1.23-1.09-2.44-1.95-3.62-2.56-1.8-.91-3.67-1.37-5.61-1.37-3.35,0-6.03,1.25-8.03,3.76-1.85,2.32-2.77,5.2-2.77,8.61s.92,6.37,2.77,8.72c2,2.55,4.68,3.83,8.03,3.83,1.98,0,3.86-.43,5.64-1.3,1.16-.57,2.35-1.37,3.55-2.39,1-.87,1.56-1.3,1.67-1.3.23,0,.46.13.68.38.36.41,1.36,1.83,2.97,4.27,1.66,2.53,2.5,3.92,2.5,4.17Z"/>
      <path class="cls-1" d="M311.96,11.72c0,.46-.25.68-.75.68-.87,0-4.3-.17-10.29-.51-.14,5.77-.21,9.79-.21,12.07,0,2.69.11,6.73.33,12.13.22,5.4.32,9.45.32,12.13,0,.43-.1.71-.31.82-.07.05-.39.1-.96.17-1.37.18-3.37.27-6.02.27-2.94,0-5-.09-6.19-.27-.64-.11-.96-.47-.96-1.06,0-2.69.11-6.72.34-12.1.23-5.38.34-9.41.34-12.1,0-1.78-.09-5.74-.27-11.89-4.56.46-8.19.68-10.9.68-.37,0-.55-.11-.55-.34,0-.3.16-1.17.48-2.63.36-1.59.57-2.56.62-2.91.07-1.07.15-2.14.24-3.21.16-1.71.43-2.56.82-2.56.04,0,.21.01.48.03,3.69.48,9.15.72,16.37.72,2.05,0,5.83-.22,11.35-.65,2.96-.23,4.45-.34,4.48-.34.46,0,.72.03.79.09.07.06.11.28.14.67,0,.62-.02,1.47-.07,2.56-.05,1.21-.07,2.06-.07,2.56,0,.57.07,1.41.22,2.51.15,1.11.22,1.93.22,2.48Z"/>
    </g>
  </g>
</svg>