<?xml version="1.0" encoding="UTF-8"?>
<svg id="_レイヤー_2" data-name="レイヤー 2" xmlns="http://www.w3.org/2000/svg" viewBox="0 0 170.15 51.17">
  <defs>
    <style>
      .cls-1 {
        fill: #e6dfcb;
      }
    </style>
  </defs>
  <g id="_固定" data-name="固定">
    <g>
      <path class="cls-1" d="M24.95,33.67c0,4.63-1.95,8.59-5.84,11.89-3.42,2.92-7.58,4.77-12.48,5.57-.18.02-.33.03-.44.03-.52,0-1.69-1.6-3.49-4.8-1.8-3.2-2.7-5.16-2.7-5.86,0-.25.17-.41.51-.48,3.3-.75,5.49-1.39,6.56-1.91,2.37-1.18,3.55-2.94,3.55-5.26,0-1.48-.77-3.13-2.32-4.96-2.69-3.1-4.15-4.82-4.38-5.16-1.57-2.37-2.36-4.99-2.36-7.86,0-4.17,1.93-7.63,5.78-10.39C10.49,2.2,14.36.72,18.94.03c.25-.02.44-.03.58-.03.34,0,.62.27.82.82.59,1.66,1.97,4.67,4.14,9.02.07.14.1.25.1.34,0,.39-.21.58-.62.58-.18,0-.49-.03-.92-.1-.43-.07-.76-.1-.99-.1-1.64,0-3.08.38-4.31,1.13-1.48.87-2.22,2.07-2.22,3.62,0,1.39.82,3.1,2.46,5.13,2.89,3.65,4.41,5.56,4.55,5.74,1.62,2.51,2.43,5,2.43,7.49Z"/>
      <path class="cls-1" d="M72.7,47.48c0,.98-.42,1.62-1.26,1.91-.68.23-2.48.34-5.4.34s-4.85-.11-6.15-.34c-.62-.11-1.02-.23-1.21-.36-.19-.12-.44-.45-.73-.97-1.66-3.05-3.32-6.11-4.96-9.16-2.71-4.92-4.33-7.63-4.85-8.13-2.46.89-3.69,1.53-3.69,1.91,0,1.71.07,4.29.21,7.74s.21,6.04.21,7.78c0,.71-.31,1.11-.92,1.2-1.19.18-3.33.27-6.43.27s-4.92-.09-5.88-.27c-.66-.14-.99-.49-.99-1.06,0-2.46.12-6.17.36-11.14.24-4.97.36-8.69.36-11.18,0-2.64-.11-6.61-.34-11.91-.23-5.3-.34-9.27-.34-11.91,0-.5.24-.75.72-.75.71,0,1.77.03,3.2.1,1.42.07,2.49.1,3.2.1s1.81-.03,3.25-.1,2.51-.1,3.21-.1c.39,0,.58.21.58.62,0,1.69-.09,4.23-.26,7.64-.17,3.41-.26,5.95-.26,7.64,0,1.96.54,2.94,1.61,2.94,2.71,0,4.82-.74,6.32-2.22,1.12-1.09,2.24-3.09,3.38-5.98.73-2.21,1.93-5.47,3.59-9.78.25-.57.76-.85,1.54-.85.59,0,1.49.03,2.68.1s2.09.1,2.68.1,1.53-.02,2.75-.07c1.22-.05,2.12-.07,2.72-.07.55,0,.82.26.82.79,0,.75-.48,2.59-1.44,5.5-2.83,8.61-6.07,13.99-9.74,16.13-.75.43-1.13.79-1.13,1.06,0-.02,2.1,3.4,6.31,10.25,4.2,6.86,6.31,10.94,6.31,12.24Z"/>
      <path class="cls-1" d="M90.51,24.13c0,2.69.07,6.73.21,12.13s.21,9.45.21,12.13c0,.46-.1.74-.31.85-.05.02-.34.07-.89.14-1.48.18-3.46.27-5.95.27-3.33,0-5.45-.09-6.36-.27-.66-.14-.99-.49-.99-1.06,0,.36.1-1.64.31-6.02.41-9.23.62-15.29.62-18.18,0-2.44-.08-6.1-.24-10.97-.16-4.88-.24-8.53-.24-10.97,0-.5.26-.75.79-.75.71,0,1.77.03,3.2.1,1.42.07,2.49.1,3.2.1s1.75-.03,3.13-.1c1.38-.07,2.42-.1,3.13-.1.66,0,.99.25.99.75,0,2.44-.13,6.1-.39,10.97-.26,4.88-.39,8.53-.39,10.97Z"/>
      <path class="cls-1" d="M128.89,49.97c-1.96,0-4.51-.05-7.66-.14-4.1-.09-6.65-.15-7.66-.17l-10.22-.14c-1.03.02-2.5-.02-4.41-.14-.66-.11-.99-.47-.99-1.06,0-2.48.04-6.2.12-11.16.08-4.96.12-8.68.12-11.16,0-2.64-.08-6.6-.24-11.88-.16-5.27-.24-9.23-.24-11.88,0-.5.34-.75,1.03-.75s1.7.03,3.06.1c1.36.07,2.36.1,3.02.1.75,0,1.87-.04,3.35-.12,1.48-.08,2.6-.12,3.35-.12.34,0,.5.22.48.65l-.03.44c-.27,4.28-.58,10.72-.92,19.31l-.03,9.02c0,2.92.01,5.05.03,6.39.02.27.05.55.07.82.02.27.19.44.51.51h.89c2.05,0,5.12-.11,9.21-.32,4.09-.22,7.16-.32,9.21-.32.62,0,.92.26.92.79,0,3.9-.29,7.26-.85,10.08-.11.59-.35.95-.72,1.06-.11.05-.58.07-1.4.07Z"/>
      <path class="cls-1" d="M167.17,49.97c-1.96,0-4.51-.05-7.66-.14-4.1-.09-6.65-.15-7.66-.17l-10.22-.14c-1.03.02-2.5-.02-4.41-.14-.66-.11-.99-.47-.99-1.06,0-2.48.04-6.2.12-11.16.08-4.96.12-8.68.12-11.16,0-2.64-.08-6.6-.24-11.88-.16-5.27-.24-9.23-.24-11.88,0-.5.34-.75,1.03-.75s1.7.03,3.06.1c1.36.07,2.36.1,3.02.1.75,0,1.87-.04,3.35-.12,1.48-.08,2.6-.12,3.35-.12.34,0,.5.22.48.65l-.03.44c-.27,4.28-.58,10.72-.92,19.31l-.03,9.02c0,2.92.01,5.05.03,6.39.02.27.05.55.07.82.02.27.19.44.51.51h.89c2.05,0,5.12-.11,9.21-.32,4.09-.22,7.16-.32,9.21-.32.62,0,.92.26.92.79,0,3.9-.29,7.26-.85,10.08-.11.59-.35.95-.72,1.06-.11.05-.58.07-1.4.07Z"/>
    </g>
  </g>
</svg>