<?xml version="1.0" encoding="UTF-8"?>
<svg id="_レイヤー_2" data-name="レイヤー 2" xmlns="http://www.w3.org/2000/svg" viewBox="0 0 323.88 72.12">
  <defs>
    <style>
      .cls-1 {
        fill: #e6dfcb;
      }
    </style>
  </defs>
  <g id="_固定" data-name="固定">
    <g>
      <path class="cls-1" d="M58.54,46.34c0,8.3-.99,13.96-2.98,16.99-3.65,5.53-12.74,8.3-27.29,8.3-6.58,0-11.64-.5-15.19-1.51-5.66-1.63-9.34-4.74-11.04-9.33-.85-2.25-1.27-6.25-1.27-12.01,0-1.33.05-3.32.15-5.96s.15-4.61.15-5.91c0-3.78-.18-9.44-.54-16.99C.18,12.37,0,6.72,0,2.98c0-.78.34-1.17,1.03-1.17,1.99,0,4.99.08,9.01.24,4.02.16,7.02.24,9.01.24.81,0,1.22.36,1.22,1.07,0,4.3-.14,10.73-.42,19.31-.28,8.58-.42,15.01-.42,19.31,0,5.11.54,8.56,1.61,10.35,1.43,2.44,4.43,3.66,8.98,3.66,6.67,0,10.01-3.24,10.01-9.72,0-4.72-.11-11.8-.34-21.24-.23-9.44-.34-16.52-.34-21.24,0-1.01.41-1.51,1.22-1.51,1.92,0,4.82-.08,8.69-.24,3.87-.16,6.77-.24,8.69-.24.94,0,1.42.39,1.42,1.17,0,3.74-.15,9.39-.46,16.94-.31,7.55-.46,13.22-.46,16.99,0,1.04.02,2.61.05,4.71.03,2.1.05,3.67.05,4.71Z"/>
      <path class="cls-1" d="M115.72,16.75c0,.65-.36.98-1.07.98-1.24,0-6.14-.24-14.7-.73-.2,8.24-.29,13.98-.29,17.24,0,3.84.15,9.62.46,17.33.31,7.71.46,13.49.46,17.33,0,.62-.15,1.01-.44,1.17-.1.07-.55.15-1.37.24-1.95.26-4.82.39-8.59.39-4.2,0-7.15-.13-8.84-.39-.91-.16-1.37-.67-1.37-1.51,0-3.84.16-9.6.49-17.29.32-7.68.49-13.44.49-17.29,0-2.54-.13-8.2-.39-16.99-6.51.65-11.7.98-15.58.98-.52,0-.78-.16-.78-.49,0-.42.23-1.68.68-3.76.52-2.28.81-3.66.88-4.15.1-1.53.21-3.06.34-4.59.23-2.44.62-3.66,1.17-3.66.06,0,.29.02.68.05,5.27.68,13.07,1.03,23.39,1.03,2.93,0,8.33-.31,16.21-.93,4.23-.33,6.36-.49,6.4-.49.65,0,1.03.04,1.12.12.1.08.16.4.2.95,0,.88-.03,2.1-.1,3.66-.07,1.73-.1,2.95-.1,3.66,0,.81.11,2.01.32,3.59.21,1.58.32,2.76.32,3.54Z"/>
      <path class="cls-1" d="M185.35,69.09c0,.59-.41.99-1.22,1.22-.98.26-4,.39-9.08.39-4.66,0-7.65-.13-8.98-.39-1.11-.23-1.81-.96-2.1-2.2-1.11-4.69-1.97-7.19-2.59-7.52-.52-.23-4.88-.34-13.09-.34-5.53,0-8.48.15-8.84.44-.55.52-1.17,2.26-1.86,5.22-.62,2.7-1.37,4.17-2.25,4.39-1.11.26-4.82.39-11.13.39-4.98,0-7.47-.47-7.47-1.42,0-.85,3.68-11.25,11.04-31.2,7.98-21.58,12.3-33.45,12.99-35.6.39-1.24.85-1.86,1.37-1.86.88,0,2.24.08,4.08.24,1.84.16,3.21.24,4.13.24s2.17-.06,3.88-.17c1.71-.11,2.99-.17,3.83-.17.62,0,1.19.54,1.71,1.61,1.59,3.42,6.25,15.14,13.96,35.16,7.75,20.15,11.62,30.66,11.62,31.54ZM150.73,24.61c-.68,1.43-1.84,4.54-3.47,9.33-1.76,5.08-2.64,8.06-2.64,8.94,0,.59.98.91,2.93.98,1.01.07,2.67.1,4.98.1,2.15,0,3.34-.26,3.56-.78.06-.16.1-.39.1-.68,0-1.07-.75-4.04-2.25-8.89-1.46-4.69-2.54-7.68-3.22-8.98Z"/>
      <path class="cls-1" d="M250.44,67.58c0,1.4-.6,2.31-1.81,2.73-.98.33-3.55.49-7.71.49s-6.93-.16-8.79-.49c-.88-.16-1.46-.33-1.73-.51-.28-.18-.63-.64-1.05-1.39-2.38-4.36-4.74-8.72-7.08-13.09-3.87-7.03-6.19-10.9-6.93-11.62-3.52,1.27-5.27,2.18-5.27,2.73,0,2.44.1,6.13.29,11.06s.29,8.63.29,11.11c0,1.01-.44,1.58-1.32,1.71-1.69.26-4.75.39-9.18.39s-7.03-.13-8.4-.39c-.94-.2-1.42-.7-1.42-1.51,0-3.52.17-8.82.51-15.92.34-7.1.51-12.42.51-15.97,0-3.78-.16-9.45-.49-17.02-.33-7.57-.49-13.24-.49-17.02,0-.72.34-1.07,1.03-1.07,1.01,0,2.53.05,4.57.15,2.03.1,3.56.15,4.57.15s2.59-.05,4.64-.15,3.58-.15,4.59-.15c.55,0,.83.29.83.88,0,2.41-.12,6.05-.37,10.91-.24,4.87-.37,8.5-.37,10.91,0,2.8.76,4.2,2.29,4.2,3.87,0,6.88-1.06,9.03-3.17,1.59-1.56,3.21-4.41,4.83-8.54,1.04-3.16,2.75-7.81,5.13-13.96.36-.81,1.09-1.22,2.2-1.22.85,0,2.12.05,3.83.15s2.99.15,3.83.15,2.19-.03,3.93-.1c1.74-.06,3.03-.1,3.88-.1.78,0,1.17.37,1.17,1.12,0,1.07-.68,3.69-2.05,7.86-4.04,12.3-8.68,19.99-13.92,23.05-1.07.62-1.61,1.12-1.61,1.51,0-.03,3,4.85,9.01,14.65,6.01,9.8,9.01,15.62,9.01,17.48Z"/>
      <path class="cls-1" d="M323.88,36.13c0,10.16-3.24,18.67-9.72,25.54-6.61,6.97-14.97,10.45-25.1,10.45s-18.41-3.52-25.05-10.55c-6.51-6.87-9.77-15.35-9.77-25.44s3.25-18.64,9.77-25.54c6.64-7.06,14.99-10.6,25.05-10.6s18.33,3.53,25,10.6c6.54,6.97,9.81,15.48,9.81,25.54ZM305.37,36.04c0-4.88-1.48-9.03-4.44-12.45-3.09-3.58-7.05-5.37-11.87-5.37s-8.48,1.86-11.67,5.57c-3.09,3.58-4.64,7.7-4.64,12.35,0,4.98,1.45,9.13,4.35,12.45,3.06,3.48,7.05,5.22,11.96,5.22,4.59,0,8.5-1.84,11.72-5.52,3.06-3.52,4.59-7.6,4.59-12.26Z"/>
    </g>
  </g>
</svg>