<?xml version="1.0" encoding="UTF-8"?>
<svg id="_レイヤー_2" data-name="レイヤー 2" xmlns="http://www.w3.org/2000/svg" viewBox="0 0 356.26 79.33">
  <defs>
    <style>
      .cls-1 {
        fill: #3d563e;
      }
    </style>
  </defs>
  <g id="_固定" data-name="固定">
    <g>
      <path class="cls-1" d="M64.4,50.97c0,9.13-1.09,15.36-3.28,18.69-4.01,6.09-14.02,9.13-30.02,9.13-7.23,0-12.8-.56-16.7-1.67-6.23-1.79-10.28-5.21-12.14-10.26-.93-2.47-1.4-6.88-1.4-13.21,0-1.47.05-3.65.16-6.55s.16-5.07.16-6.5c0-4.15-.2-10.38-.59-18.69C.2,13.61,0,7.39,0,3.28c0-.86.38-1.29,1.13-1.29,2.18,0,5.49.09,9.91.27,4.42.18,7.73.27,9.91.27.89,0,1.34.39,1.34,1.18,0,4.73-.15,11.81-.46,21.24-.3,9.44-.46,16.52-.46,21.24,0,5.62.59,9.42,1.77,11.39,1.58,2.69,4.87,4.03,9.88,4.03,7.34,0,11.01-3.56,11.01-10.69,0-5.19-.13-12.98-.38-23.36-.25-10.38-.38-18.17-.38-23.36,0-1.11.45-1.67,1.34-1.67,2.11,0,5.3-.09,9.56-.27,4.26-.18,7.45-.27,9.56-.27,1.04,0,1.56.43,1.56,1.29,0,4.12-.17,10.33-.51,18.64-.34,8.31-.51,14.54-.51,18.69,0,1.15.02,2.87.05,5.18.04,2.31.05,4.04.05,5.18Z"/>
      <path class="cls-1" d="M127.29,18.42c0,.72-.39,1.07-1.18,1.07-1.36,0-6.75-.27-16.17-.81-.21,9.06-.32,15.38-.32,18.96,0,4.23.17,10.58.51,19.07.34,8.49.51,14.84.51,19.07,0,.68-.16,1.11-.48,1.29-.11.07-.61.16-1.5.27-2.15.29-5.3.43-9.45.43-4.62,0-7.86-.14-9.72-.43-1-.18-1.5-.73-1.5-1.67,0-4.22.18-10.56.54-19.01.36-8.45.54-14.79.54-19.01,0-2.79-.14-9.02-.43-18.69-7.16.72-12.87,1.07-17.13,1.07-.57,0-.86-.18-.86-.54,0-.46.25-1.84.75-4.14.57-2.51.89-4.03.97-4.57.11-1.68.23-3.37.38-5.05.25-2.69.68-4.03,1.29-4.03.07,0,.32.02.75.05,5.8.75,14.38,1.13,25.73,1.13,3.22,0,9.17-.34,17.83-1.02,4.65-.36,7-.54,7.04-.54.72,0,1.13.05,1.24.13.11.09.18.44.21,1.05,0,.97-.04,2.31-.11,4.03-.07,1.9-.11,3.24-.11,4.03,0,.9.12,2.21.35,3.95.23,1.74.35,3.03.35,3.89Z"/>
      <path class="cls-1" d="M203.89,76c0,.64-.45,1.09-1.34,1.34-1.07.29-4.4.43-9.99.43-5.12,0-8.42-.14-9.88-.43-1.22-.25-1.99-1.06-2.31-2.42-1.22-5.16-2.17-7.91-2.85-8.27-.57-.25-5.37-.38-14.39-.38-6.09,0-9.33.16-9.72.48-.61.57-1.29,2.49-2.04,5.75-.68,2.97-1.5,4.58-2.47,4.83-1.22.29-5.3.43-12.25.43-5.48,0-8.22-.52-8.22-1.56,0-.93,4.05-12.37,12.14-34.32,8.77-23.74,13.54-36.79,14.29-39.16.43-1.36.93-2.04,1.5-2.04.97,0,2.46.09,4.48.27,2.02.18,3.54.27,4.54.27s2.39-.06,4.27-.19c1.88-.12,3.28-.19,4.22-.19.68,0,1.31.59,1.88,1.77,1.75,3.76,6.88,16.65,15.36,38.67,8.52,22.17,12.78,33.73,12.78,34.7ZM165.81,27.07c-.75,1.58-2.02,5-3.81,10.26-1.93,5.59-2.9,8.86-2.9,9.83,0,.64,1.07,1,3.22,1.07,1.11.07,2.94.11,5.48.11,2.36,0,3.67-.29,3.92-.86.07-.18.11-.43.11-.75,0-1.18-.82-4.44-2.47-9.78-1.61-5.16-2.79-8.45-3.54-9.88Z"/>
      <path class="cls-1" d="M275.48,74.34c0,1.54-.66,2.54-1.99,3.01-1.07.36-3.9.54-8.49.54s-7.63-.18-9.67-.54c-.97-.18-1.6-.37-1.91-.56-.3-.2-.69-.71-1.15-1.53-2.61-4.8-5.21-9.6-7.79-14.39-4.26-7.73-6.8-12-7.63-12.78-3.87,1.4-5.8,2.4-5.8,3.01,0,2.69.11,6.74.32,12.17s.32,9.5.32,12.22c0,1.11-.48,1.74-1.45,1.88-1.86.29-5.23.43-10.1.43s-7.73-.14-9.24-.43c-1.04-.21-1.56-.77-1.56-1.67,0-3.87.19-9.7.56-17.51.38-7.81.56-13.66.56-17.56,0-4.15-.18-10.39-.54-18.72-.36-8.33-.54-14.56-.54-18.72,0-.79.38-1.18,1.13-1.18,1.11,0,2.78.05,5.02.16,2.24.11,3.91.16,5.02.16s2.85-.05,5.1-.16,3.94-.16,5.05-.16c.61,0,.91.32.91.97,0,2.65-.13,6.65-.4,12-.27,5.35-.4,9.35-.4,12,0,3.08.84,4.62,2.52,4.62,4.26,0,7.57-1.16,9.94-3.49,1.75-1.72,3.53-4.85,5.32-9.4,1.15-3.47,3.03-8.59,5.64-15.36.39-.89,1.2-1.34,2.42-1.34.93,0,2.34.05,4.22.16s3.28.16,4.22.16,2.41-.04,4.32-.11c1.92-.07,3.34-.11,4.27-.11.86,0,1.29.41,1.29,1.24,0,1.18-.75,4.06-2.26,8.65-4.44,13.54-9.54,21.99-15.31,25.35-1.18.68-1.77,1.24-1.77,1.67,0-.04,3.3,5.34,9.91,16.11,6.61,10.78,9.91,17.19,9.91,19.23Z"/>
      <path class="cls-1" d="M356.26,39.75c0,11.17-3.56,20.54-10.69,28.09-7.27,7.66-16.47,11.49-27.61,11.49s-20.25-3.87-27.55-11.6c-7.16-7.55-10.74-16.88-10.74-27.98s3.58-20.5,10.74-28.09c7.3-7.77,16.49-11.66,27.55-11.66s20.16,3.89,27.5,11.66c7.2,7.66,10.8,17.03,10.8,28.09ZM335.91,39.64c0-5.37-1.63-9.94-4.89-13.7-3.4-3.94-7.75-5.91-13.05-5.91s-9.33,2.04-12.84,6.12c-3.4,3.94-5.1,8.47-5.1,13.59,0,5.48,1.59,10.04,4.78,13.7,3.37,3.83,7.75,5.75,13.16,5.75,5.05,0,9.35-2.02,12.89-6.07,3.37-3.87,5.05-8.36,5.05-13.48Z"/>
    </g>
  </g>
</svg>