<?xml version="1.0" encoding="UTF-8"?>
<svg id="_レイヤー_2" data-name="レイヤー 2" xmlns="http://www.w3.org/2000/svg" viewBox="0 0 100 21.93">
  <defs>
    <style>
      .cls-1 {
        fill: #e6dfcb;
      }
    </style>
  </defs>
  <g id="_固定" data-name="固定">
    <g>
      <path class="cls-1" d="M26.5,8.12s-.91,2-2.72,5.9c-1.85,3.98-2.9,6.23-3.16,6.72-.09.18-.14.27-.16.29-.04.05-.13.09-.28.13-.24.06-.94.09-2.08.09-1.06,0-1.71-.03-1.95-.09-.2-.05-.31-.09-.35-.12s-.1-.12-.19-.28c-.06-.11-.34-.8-.83-2.07l-1.6-4.07-1.63,4.12c-.17.47-.44,1.14-.82,2.02-.1.17-.17.27-.21.3s-.15.07-.34.1c-.33.06-.97.09-1.92.09-1.17,0-1.88-.03-2.11-.09-.17-.04-.3-.18-.41-.42C1.91,12.88,0,8.67,0,8.12c0-.78.03-1.95.08-3.51.05-1.56.08-2.73.08-3.51,0-.32.1-.48.29-.48.56,0,1.4.02,2.53.07,1.13.05,1.97.07,2.54.07.22,0,.34.09.34.28,0,.78-.04,1.96-.11,3.54-.07,1.58-.11,2.76-.11,3.54,0,.29.36,1.23,1.07,2.8.64,1.41,1.11,2.36,1.41,2.86.15.25.24.38.29.38.08,0,.28-.47.6-1.41.92-2.63,1.39-4.18,1.41-4.66.04-.9.04-2.04.01-3.43-.03-2-.04-3.15-.04-3.44,0-.19.01-.3.04-.33s.14-.07.32-.1c.5-.06,1.36-.09,2.58-.09,1.87,0,2.8.13,2.8.4,0,.65-.02,1.67-.07,3.05-.05,1.34-.07,2.35-.06,3.05v.75c0,.5.5,2.08,1.51,4.76.34.93.55,1.39.62,1.39.05,0,.15-.13.29-.38.27-.48.71-1.43,1.32-2.84.67-1.54,1.01-2.46,1.01-2.75,0-.79-.04-1.98-.11-3.55-.07-1.58-.11-2.76-.11-3.54,0-.18.11-.26.34-.26.58,0,1.44-.02,2.6-.07,1.16-.05,2.02-.07,2.6-.07.19,0,.28.2.28.59,0,.77.03,1.93.08,3.46.05,1.54.08,2.69.08,3.45Z"/>
      <path class="cls-1" d="M49,10.91c0,3.05-.97,5.6-2.92,7.66-1.98,2.09-4.49,3.13-7.53,3.13s-5.52-1.05-7.51-3.16c-1.95-2.06-2.93-4.6-2.93-7.63s.98-5.59,2.93-7.66c1.99-2.12,4.5-3.18,7.51-3.18s5.5,1.06,7.5,3.18c1.96,2.09,2.94,4.64,2.94,7.66ZM43.45,10.88c0-1.46-.44-2.71-1.33-3.74-.93-1.07-2.11-1.61-3.56-1.61s-2.54.56-3.5,1.67c-.93,1.07-1.39,2.31-1.39,3.71,0,1.49.43,2.74,1.3,3.74.92,1.04,2.11,1.57,3.59,1.57,1.38,0,2.55-.55,3.52-1.66.92-1.05,1.38-2.28,1.38-3.68Z"/>
      <path class="cls-1" d="M68.64,21.02c0,.07-.1.12-.29.15-.37.06-1.3.09-2.8.09-1.28,0-2.15-.03-2.61-.09-.21-.03-.34-.05-.37-.07-.06-.03-.13-.13-.21-.29-.15-.38-.36-.95-.64-1.7-.38-.98-.98-2.42-1.79-4.32-.18-.38-.58-.59-1.22-.63.29.02-.21.03-1.51.03-.15,0-.22.25-.22.75,0,.66.06,1.66.18,2.97s.18,2.31.18,2.97c0,.17-.04.26-.13.29l-.41.03c-.58.04-1.47.06-2.7.06-1.4,0-2.24-.03-2.52-.09s-.42-.21-.42-.45c0-1.07.05-2.7.15-4.86.1-2.17.15-3.79.15-4.88,0-4.13-.09-7.35-.28-9.67v-.21c-.02-.17.13-.28.45-.34.32-.06,1.81-.12,4.47-.18,1.81-.04,3.25-.06,4.32-.06,2.23,0,4.04.5,5.45,1.51,1.59,1.13,2.39,2.77,2.39,4.91,0,1.43-.21,2.56-.62,3.41s-1.17,1.67-2.27,2.48c-.22.16-.34.3-.34.44,0,0,.6,1.22,1.79,3.68s1.79,3.82,1.79,4.07ZM62.49,7.88c0-1.19-.39-2.02-1.17-2.48-.61-.35-1.55-.53-2.84-.53-.93,0-1.42.14-1.48.42-.06.33-.09,1.29-.09,2.87,0,.22,0,.56.01,1s.01.77.01.98c0,.05.16.1.47.15.6.09,1.22.13,1.88.13,2.14,0,3.21-.85,3.21-2.55Z"/>
      <path class="cls-1" d="M88.33,20.35c0,.42-.18.69-.54.82-.29.1-1.06.15-2.31.15s-2.08-.05-2.64-.15c-.26-.05-.44-.1-.52-.15-.08-.05-.19-.19-.32-.42-.71-1.31-1.42-2.62-2.12-3.93-1.16-2.11-1.86-3.27-2.08-3.49-1.05.38-1.58.65-1.58.82,0,.73.03,1.84.09,3.32s.09,2.59.09,3.33c0,.3-.13.47-.4.51-.51.08-1.43.12-2.75.12s-2.11-.04-2.52-.12c-.28-.06-.42-.21-.42-.45,0-1.05.05-2.65.15-4.78.1-2.13.15-3.73.15-4.79,0-1.13-.05-2.83-.15-5.1s-.15-3.97-.15-5.1c0-.21.1-.32.31-.32.3,0,.76.01,1.37.04s1.07.04,1.37.04.78-.01,1.39-.04,1.07-.04,1.38-.04c.17,0,.25.09.25.26,0,.72-.04,1.81-.11,3.27-.07,1.46-.11,2.55-.11,3.27,0,.84.23,1.26.69,1.26,1.16,0,2.07-.32,2.71-.95.48-.47.96-1.32,1.45-2.56.31-.95.83-2.34,1.54-4.19.11-.24.33-.37.66-.37.25,0,.64.01,1.15.04.51.03.9.04,1.15.04s.66,0,1.18-.03c.52-.02.91-.03,1.16-.03.23,0,.35.11.35.34,0,.32-.21,1.11-.62,2.36-1.21,3.69-2.6,6-4.17,6.91-.32.19-.48.34-.48.45,0,0,.9,1.46,2.7,4.39,1.8,2.94,2.7,4.69,2.7,5.24Z"/>
      <path class="cls-1" d="M100,14.43c0,1.98-.83,3.68-2.5,5.1-1.46,1.25-3.25,2.05-5.35,2.39-.08,0-.14.01-.19.01-.22,0-.72-.69-1.49-2.06s-1.16-2.21-1.16-2.51c0-.11.07-.18.22-.21,1.42-.32,2.35-.6,2.81-.82,1.02-.51,1.52-1.26,1.52-2.26,0-.63-.33-1.34-1-2.12-1.15-1.33-1.78-2.07-1.88-2.21-.67-1.02-1.01-2.14-1.01-3.37,0-1.79.83-3.27,2.48-4.45,1.35-.98,3-1.61,4.97-1.9.11,0,.19-.01.25-.01.15,0,.26.12.35.35.25.71.84,2,1.77,3.87.03.06.04.11.04.15,0,.17-.09.25-.26.25-.08,0-.21-.01-.4-.04s-.33-.04-.42-.04c-.7,0-1.32.16-1.85.48-.63.37-.95.89-.95,1.55,0,.6.35,1.33,1.05,2.2,1.24,1.56,1.89,2.38,1.95,2.46.69,1.07,1.04,2.14,1.04,3.21Z"/>
    </g>
  </g>
</svg>